<svg width="116" height="14" viewBox="0 0 116 14" fill="none" xmlns="http://www.w3.org/2000/svg">
<path d="M1.928 11.576H5.832V13H0.104V1.704H1.928V11.576ZM9.08425 3.176V6.6H13.2443V8.008H9.08425V11.512H13.7243V13H7.26025V1.704H13.7243V3.176H9.08425ZM22.7586 1.704V3.176H19.6066V13H17.7666V3.176H14.6306V1.704H22.7586ZM25.3036 0.136C25.453 0.637333 25.5276 1.17067 25.5276 1.736C25.5276 2.376 25.373 2.86667 25.0636 3.208C24.765 3.54933 24.3223 3.72 23.7356 3.72V2.952C24.0023 2.952 24.1996 2.87733 24.3276 2.728C24.4556 2.568 24.5196 2.33333 24.5196 2.024V1.688H23.6556V0.136H25.3036ZM34.6999 9.992C34.6999 10.5467 34.5665 11.064 34.2999 11.544C34.0332 12.0133 33.6279 12.392 33.0839 12.68C32.5399 12.968 31.8732 13.112 31.0839 13.112C30.3159 13.112 29.6279 12.9787 29.0199 12.712C28.4119 12.4347 27.9265 12.0507 27.5639 11.56C27.2012 11.0693 26.9932 10.504 26.9399 9.864H28.8919C28.9452 10.3547 29.1532 10.776 29.5159 11.128C29.8892 11.48 30.3852 11.656 31.0039 11.656C31.5585 11.656 31.9852 11.5067 32.2839 11.208C32.5932 10.9093 32.7479 10.5253 32.7479 10.056C32.7479 9.65067 32.6359 9.32 32.4119 9.064C32.1879 8.79733 31.9105 8.58933 31.5799 8.44C31.2492 8.29067 30.7959 8.12 30.2199 7.928C29.5159 7.704 28.9399 7.48 28.4919 7.256C28.0545 7.032 27.6812 6.70667 27.3719 6.28C27.0625 5.85333 26.9079 5.29333 26.9079 4.6C26.9079 3.992 27.0572 3.45867 27.3559 3C27.6545 2.54133 28.0812 2.18933 28.6359 1.944C29.1905 1.688 29.8305 1.56 30.5559 1.56C31.7079 1.56 32.6199 1.83733 33.2919 2.392C33.9745 2.94667 34.3639 3.672 34.4599 4.568H32.4919C32.4172 4.14133 32.2145 3.77867 31.8839 3.48C31.5639 3.17067 31.1212 3.016 30.5559 3.016C30.0439 3.016 29.6332 3.14933 29.3239 3.416C29.0145 3.672 28.8599 4.04533 28.8599 4.536C28.8599 4.92 28.9665 5.24 29.1799 5.496C29.3932 5.74133 29.6599 5.93867 29.9799 6.088C30.3105 6.22667 30.7585 6.392 31.3239 6.584C32.0385 6.808 32.6199 7.03733 33.0679 7.272C33.5265 7.496 33.9105 7.82667 34.2199 8.264C34.5399 8.70133 34.6999 9.27733 34.6999 9.992ZM45.3159 1.592C46.7025 1.592 47.8545 1.944 48.7719 2.648C49.6892 3.352 50.3079 4.30667 50.6279 5.512H48.6919C48.4252 4.82933 47.9985 4.29067 47.4119 3.896C46.8359 3.49067 46.1265 3.288 45.2839 3.288C44.6119 3.288 44.0092 3.45333 43.4759 3.784C42.9532 4.11467 42.5372 4.58933 42.2279 5.208C41.9292 5.816 41.7799 6.53067 41.7799 7.352C41.7799 8.16267 41.9292 8.87733 42.2279 9.496C42.5372 10.104 42.9532 10.5733 43.4759 10.904C44.0092 11.2347 44.6119 11.4 45.2839 11.4C46.1265 11.4 46.8359 11.2027 47.4119 10.808C47.9985 10.4027 48.4252 9.864 48.6919 9.192H50.6279C50.3079 10.3973 49.6892 11.352 48.7719 12.056C47.8545 12.7493 46.7025 13.096 45.3159 13.096C44.2492 13.096 43.3052 12.856 42.4839 12.376C41.6625 11.8853 41.0279 11.208 40.5799 10.344C40.1319 9.46933 39.9079 8.472 39.9079 7.352C39.9079 6.232 40.1319 5.24 40.5799 4.376C41.0279 3.50133 41.6625 2.81867 42.4839 2.328C43.3052 1.83733 44.2492 1.592 45.3159 1.592ZM57.6798 1.56C58.7251 1.56 59.6691 1.80533 60.5118 2.296C61.3651 2.78667 62.0318 3.47467 62.5118 4.36C63.0024 5.23467 63.2478 6.22667 63.2478 7.336C63.2478 8.44533 63.0024 9.44267 62.5118 10.328C62.0318 11.2027 61.3651 11.8907 60.5118 12.392C59.6691 12.8827 58.7251 13.128 57.6798 13.128C56.6238 13.128 55.6691 12.8827 54.8158 12.392C53.9731 11.8907 53.3064 11.2027 52.8158 10.328C52.3251 9.44267 52.0798 8.44533 52.0798 7.336C52.0798 6.22667 52.3251 5.23467 52.8158 4.36C53.3064 3.47467 53.9731 2.78667 54.8158 2.296C55.6691 1.80533 56.6238 1.56 57.6798 1.56ZM57.6798 3.256C56.9544 3.256 56.3091 3.42133 55.7438 3.752C55.1784 4.08267 54.7358 4.55733 54.4158 5.176C54.1064 5.79467 53.9518 6.51467 53.9518 7.336C53.9518 8.15733 54.1064 8.87733 54.4158 9.496C54.7358 10.1147 55.1784 10.5893 55.7438 10.92C56.3091 11.2507 56.9544 11.416 57.6798 11.416C58.3944 11.416 59.0291 11.2507 59.5838 10.92C60.1491 10.5893 60.5864 10.1147 60.8958 9.496C61.2158 8.87733 61.3758 8.15733 61.3758 7.336C61.3758 6.51467 61.2158 5.79467 60.8958 5.176C60.5864 4.55733 60.1491 4.08267 59.5838 3.752C59.0291 3.42133 58.3944 3.256 57.6798 3.256ZM74.2244 13H72.4004L66.9124 4.664V13H65.0884V1.72H66.9124L72.4004 10.088V1.72H74.2244V13ZM85.5681 13H83.7441L78.2561 4.664V13H76.4321V1.72H78.2561L83.7441 10.088V1.72H85.5681V13ZM89.5999 3.176V6.6H93.7599V8.008H89.5999V11.512H94.2399V13H87.7759V1.704H94.2399V3.176H89.5999ZM101.05 1.592C102.437 1.592 103.589 1.944 104.506 2.648C105.424 3.352 106.042 4.30667 106.362 5.512H104.426C104.16 4.82933 103.733 4.29067 103.146 3.896C102.57 3.49067 101.861 3.288 101.018 3.288C100.346 3.288 99.7436 3.45333 99.2103 3.784C98.6876 4.11467 98.2716 4.58933 97.9623 5.208C97.6636 5.816 97.5143 6.53067 97.5143 7.352C97.5143 8.16267 97.6636 8.87733 97.9623 9.496C98.2716 10.104 98.6876 10.5733 99.2103 10.904C99.7436 11.2347 100.346 11.4 101.018 11.4C101.861 11.4 102.57 11.2027 103.146 10.808C103.733 10.4027 104.16 9.864 104.426 9.192H106.362C106.042 10.3973 105.424 11.352 104.506 12.056C103.589 12.7493 102.437 13.096 101.05 13.096C99.9836 13.096 99.0396 12.856 98.2183 12.376C97.3969 11.8853 96.7623 11.208 96.3143 10.344C95.8663 9.46933 95.6423 8.472 95.6423 7.352C95.6423 6.232 95.8663 5.24 96.3143 4.376C96.7623 3.50133 97.3969 2.81867 98.2183 2.328C99.0396 1.83733 99.9836 1.592 101.05 1.592ZM115.446 1.704V3.176H112.294V13H110.454V3.176H107.318V1.704H115.446Z" fill="#7F8CFF"/>
</svg>
